<svg width="96" height="64" viewBox="0 0 96 64" fill="none" xmlns="http://www.w3.org/2000/svg">
  <defs>
    <radialGradient id="washA" cx="0" cy="0" r="1" gradientUnits="userSpaceOnUse" gradientTransform="translate(34 36) rotate(16) scale(31 22)">
      <stop stop-color="#2A231D" stop-opacity="0.42"/>
      <stop offset="1" stop-color="#2A231D" stop-opacity="0"/>
    </radialGradient>
    <radialGradient id="washB" cx="0" cy="0" r="1" gradientUnits="userSpaceOnUse" gradientTransform="translate(58 27) rotate(-22) scale(26 18)">
      <stop stop-color="#355842" stop-opacity="0.26"/>
      <stop offset="1" stop-color="#355842" stop-opacity="0"/>
    </radialGradient>
    <linearGradient id="inkStroke" x1="14" y1="42" x2="77" y2="25" gradientUnits="userSpaceOnUse">
      <stop stop-color="#1D1916" stop-opacity="0.88"/>
      <stop offset="0.52" stop-color="#28221D" stop-opacity="0.66"/>
      <stop offset="1" stop-color="#2A231D" stop-opacity="0.3"/>
    </linearGradient>
    <filter id="soften" x="0" y="0" width="96" height="64" filterUnits="userSpaceOnUse" color-interpolation-filters="sRGB">
      <feGaussianBlur stdDeviation="0.35"/>
    </filter>
  </defs>

  <ellipse cx="34" cy="36" rx="31" ry="22" fill="url(#washA)"/>
  <ellipse cx="58" cy="27" rx="26" ry="18" fill="url(#washB)"/>

  <g filter="url(#soften)">
    <path d="M13.8 42.6C26.2 38.6 41.2 35.7 55.3 31.2C64.1 28.4 70.1 24.9 77.5 22.5C70.7 28.3 65.2 34.1 56.8 37.3C44.1 42.2 28.2 43.8 17 47.2L13.8 42.6Z" fill="url(#inkStroke)"/>
    <path d="M49.9 22.1C54.8 19.7 59.7 21.5 62.5 24.8C58.1 23.3 54.8 23.3 51.8 26.4L49.9 22.1Z" fill="#231E1A" fill-opacity="0.74"/>
    <path d="M60.6 24.3C63.4 23.3 66.4 23.6 68.9 25.2C66.5 26 63.9 26.8 61.5 27.8L60.6 24.3Z" fill="#241F1B" fill-opacity="0.62"/>
    <path d="M26.4 45.3C28.8 39.8 32.4 34.9 36.9 30.6" stroke="#2A231D" stroke-opacity="0.6" stroke-width="1.8" stroke-linecap="round"/>
    <circle cx="37.9" cy="29.7" r="2.3" fill="#A43D30" fill-opacity="0.78"/>
    <circle cx="34.4" cy="33.2" r="1.9" fill="#A43D30" fill-opacity="0.68"/>
    <circle cx="41.3" cy="33.7" r="1.8" fill="#A43D30" fill-opacity="0.62"/>
  </g>

  <rect x="76.1" y="9.4" width="10.8" height="10.8" rx="1.6" transform="rotate(4 76.1 9.4)" fill="#AA3D2D" fill-opacity="0.82"/>
</svg>
